<svg xmlns="http://www.w3.org/2000/svg" width="400" height="400" viewBox="0 0 400 400">
  <defs>
    <pattern id="contours" width="400" height="400" patternUnits="userSpaceOnUse">
      <g fill="none" stroke="currentColor" stroke-width="0.5" opacity="0.5">
        <path d="M0 200 Q80 140 160 180 T320 160 T480 200" />
        <path d="M0 240 Q80 180 160 220 T320 200 T480 240" />
        <path d="M0 280 Q80 220 160 260 T320 240 T480 280" />
        <path d="M0 160 Q80 100 160 140 T320 120 T480 160" />
        <path d="M0 120 Q80 60 160 100 T320 80 T480 120" />
        <path d="M0 320 Q80 260 160 300 T320 280 T480 320" />
        <path d="M0 80 Q80 20 160 60 T320 40 T480 80" />
      </g>
    </pattern>
  </defs>
  <rect width="400" height="400" fill="url(#contours)"/>
</svg>
